<?xml version="1.0" standalone="no"?>
<!DOCTYPE svg PUBLIC "-//W3C//DTD SVG 20010904//EN"
 "http://www.w3.org/TR/2001/REC-SVG-20010904/DTD/svg10.dtd">
<svg version="1.0" xmlns="http://www.w3.org/2000/svg"
 width="288.000000pt" height="288.000000pt" viewBox="0 0 288.000000 288.000000"
 preserveAspectRatio="xMidYMid meet">
<metadata>
Created by potrace 1.14, written by Peter Selinger 2001-2017
</metadata>
<g transform="translate(0.000000,288.000000) scale(0.100000,-0.100000)"
fill="#000000" stroke="none">
<path d="M1305 2311 c-6 -6 -31 -12 -57 -15 -58 -7 -185 -49 -253 -83 -213
-108 -381 -301 -455 -523 -28 -83 -31 -97 -46 -190 -10 -66 -10 -209 -1 -203
5 3 8 -5 7 -18 -1 -13 -1 -26 0 -29 1 -3 3 -16 5 -30 19 -116 78 -249 161
-365 121 -171 324 -309 513 -350 11 -3 31 -7 44 -10 114 -28 274 -23 412 11
61 15 69 18 139 48 l40 17 -86 85 -85 86 -44 -13 c-65 -17 -85 -20 -179 -23
-429 -14 -773 385 -693 806 28 147 96 274 202 377 335 321 870 233 1091 -180
24 -46 43 -85 42 -87 -1 -1 5 -27 14 -58 27 -94 23 -267 -8 -374 l-14 -45 84
-84 c64 -63 86 -80 93 -70 26 41 79 212 79 256 0 13 6 23 13 23 8 0 7 4 -3 10
-8 5 -10 10 -3 10 16 0 16 200 0 200 -7 0 -6 4 3 10 12 8 12 10 1 10 -8 0 -12
3 -9 6 7 7 -16 111 -42 186 -54 156 -173 318 -313 424 -120 91 -351 180 -464
179 -22 0 -39 3 -37 6 2 3 -12 5 -31 5 -19 -1 -35 -5 -35 -11 0 -7 -3 -7 -8 0
-9 12 -52 15 -52 3 0 -4 -5 -8 -11 -8 -5 0 -7 5 -4 10 8 13 2 13 -10 1z"/>
<path d="M1597 1193 l-78 -77 324 -324 324 -324 79 80 80 79 -322 322 c-177
176 -324 321 -326 321 -2 0 -38 -35 -81 -77z"/>
</g>
</svg>
